HIERARCHY
ROOT Hips
{
	OFFSET 0.000000 0.000000 0.000000
	CHANNELS 6 Xposition Yposition Zposition Yrotation Xrotation Zrotation
	JOINT Chest
	{
		OFFSET 0.000000 -0.009281 11.569106
		CHANNELS 3 Yrotation Xrotation Zrotation
		JOINT Chest2
		{
			OFFSET -0.000000 0.016865 9.269641
			CHANNELS 3 Yrotation Xrotation Zrotation
			JOINT Chest3
			{
				OFFSET -0.000000 0.000001 8.374491
				CHANNELS 3 Yrotation Xrotation Zrotation
				JOINT Chest4
				{
					OFFSET -0.000000 0.000001 8.374493
					CHANNELS 3 Yrotation Xrotation Zrotation
					JOINT Neck
					{
						OFFSET -0.000000 0.000002 12.152554
						CHANNELS 3 Yrotation Xrotation Zrotation
						JOINT Head
						{
							OFFSET -0.000000 0.040101 7.802319
							CHANNELS 3 Yrotation Xrotation Zrotation
							End Site
							{
								OFFSET -0.000000 0.020947 14.853096
							}
						}
					}
					JOINT RightCollar
					{
						OFFSET 2.894404 0.000001 6.791374
						CHANNELS 3 Yrotation Xrotation Zrotation
						JOINT RightShoulder
						{
							OFFSET 13.574684 0.000001 0.000000
							CHANNELS 3 Yrotation Xrotation Zrotation
							JOINT RightElbow
							{
								OFFSET 23.923903 0.000002 0.000000
								CHANNELS 3 Yrotation Xrotation Zrotation
								JOINT RightWrist
								{
									OFFSET 19.846718 0.012767 0.000000
									CHANNELS 3 Yrotation Xrotation Zrotation
									End Site
									{
										OFFSET 14.973145 0.000001 0.000000
									}
								}
							}
						}
					}
					JOINT LeftCollar
					{
						OFFSET -2.894404 0.000001 6.791374
						CHANNELS 3 Yrotation Xrotation Zrotation
						JOINT LeftShoulder
						{
							OFFSET -13.574684 -0.000001 0.000000
							CHANNELS 3 Yrotation Xrotation Zrotation
							JOINT LeftElbow
							{
								OFFSET -23.923903 -0.000002 0.000000
								CHANNELS 3 Yrotation Xrotation Zrotation
								JOINT LeftWrist
								{
									OFFSET -19.846718 0.012763 0.000000
									CHANNELS 3 Yrotation Xrotation Zrotation
									End Site
									{
										OFFSET -14.973145 -0.000001 0.000000
									}
								}
							}
						}
					}
				}
			}
		}
	}
	JOINT RightHip
	{
		OFFSET 9.469263 0.004643 0.045487
		CHANNELS 3 Yrotation Xrotation Zrotation
		JOINT RightKnee
		{
			OFFSET 0.000000 0.002661 -40.478676
			CHANNELS 3 Yrotation Xrotation Zrotation
			JOINT RightAnkle
			{
				OFFSET 0.000000 0.049106 -35.224068
				CHANNELS 3 Yrotation Xrotation Zrotation
				JOINT RightToe
				{
					OFFSET -0.000001 12.539529 -6.151390
					CHANNELS 3 Yrotation Xrotation Zrotation
					End Site
					{
						OFFSET -0.000001 5.044994 -1.291870
					}
				}
			}
		}
	}
	JOINT LeftHip
	{
		OFFSET -9.469263 0.004641 0.045487
		CHANNELS 3 Yrotation Xrotation Zrotation
		JOINT LeftKnee
		{
			OFFSET 0.000000 0.002661 -40.478676
			CHANNELS 3 Yrotation Xrotation Zrotation
			JOINT LeftAnkle
			{
				OFFSET 0.000000 0.049106 -35.224068
				CHANNELS 3 Yrotation Xrotation Zrotation
				JOINT LeftToe
				{
					OFFSET -0.000001 12.539529 -6.151390
					CHANNELS 3 Yrotation Xrotation Zrotation
					End Site
					{
						OFFSET -0.000001 5.044994 -1.291870
					}
				}
			}
		}
	}
}
MOTION
Frames: 12
Frame Time: 0.016667
-79.377541 75.605675 82.266502 -2.857823 -0.273719 -110.532726 -1.530076 -5.169514 0.144862 -0.653522 -2.303670 0.052962 -0.653523 -2.303669 0.052963 -0.489876 -1.727812 0.037252 2.564165 -15.436000 -4.039883 3.285525 7.539083 -6.591786 9.197873 6.646571 -2.182133 46.290203 -18.275879 -11.956480 -5.051494 -59.344870 65.776593 -29.412584 42.234331 66.408242 -6.361336 5.237781 -4.618560 -44.323423 -7.354072 12.174338 -42.898782 -55.753557 -18.950107 17.217517 18.273579 -59.374158 0.986925 19.354654 3.458269 -3.439588 -2.632037 -13.881744 4.014520 -9.639868 15.770948 -1.193224 -4.196594 0.035001 -9.296149 -5.921601 4.870382 -3.280456 -3.357489 3.933918 6.829002 4.917714 6.175405 0.108840 -0.008786 -0.001234 
-79.244324 75.532356 82.253059 -2.849165 -0.211987 -110.466316 -1.549842 -5.174330 0.155492 -0.674395 -2.300676 0.055832 -0.674396 -2.300675 0.055834 -0.505519 -1.725570 0.039330 2.573632 -15.400869 -4.059931 3.294600 7.604379 -6.625952 9.190761 6.615428 -2.192986 46.305810 -18.328753 -11.885444 -4.930545 -59.345458 65.619110 -29.411911 42.218741 66.422149 -6.356335 5.239150 -4.596768 -44.321845 -7.270208 12.209173 -42.913471 -55.788613 -18.963576 17.200447 18.247921 -59.403938 1.318016 19.247811 2.849980 -3.627146 -2.236806 -14.018381 4.041290 -9.429128 15.784207 -1.265170 -3.745890 0.057791 -9.321114 -6.046250 4.817692 -3.287647 -3.280262 3.996256 6.738536 4.974471 6.072524 0.127855 0.004449 -0.002345 
-79.109657 75.450890 82.237122 -2.827962 -0.115273 -110.378029 -1.594716 -5.168534 0.154081 -0.699041 -2.298379 0.053141 -0.699041 -2.298379 0.053140 -0.524010 -1.723848 0.037219 2.581623 -15.382949 -4.077236 3.302491 7.637716 -6.655442 9.198110 6.616182 -2.201608 46.338517 -18.405289 -11.838059 -4.794987 -59.344276 65.433492 -29.431616 42.210484 66.418515 -6.337152 5.228629 -4.584055 -44.305272 -7.206143 12.233964 -42.931789 -55.825824 -18.992149 17.196173 18.224012 -59.420467 1.602900 19.224730 2.370608 -3.757031 -2.049381 -14.049698 4.074142 -9.222796 15.687744 -1.315387 -3.247180 0.066375 -9.371568 -6.140833 4.775623 -3.296545 -3.216642 4.038963 6.644030 5.059821 6.065410 0.148478 -0.001172 0.005218 
-78.980919 75.378693 82.220352 -2.803351 -0.010459 -110.244062 -1.644834 -5.168680 0.128493 -0.722418 -2.300113 0.043936 -0.722418 -2.300112 0.043933 -0.541575 -1.725139 0.030230 2.592161 -15.364910 -4.095830 3.314651 7.671334 -6.686381 9.205292 6.643722 -2.212455 46.383405 -18.452046 -11.802879 -4.682534 -59.353381 65.266781 -29.452278 42.196540 66.404438 -6.324050 5.252689 -4.598588 -44.256962 -7.203456 12.255338 -42.987104 -55.856881 -19.006796 17.199311 18.237484 -59.428711 1.847266 19.181961 1.927456 -3.862269 -1.924854 -14.006202 4.102373 -8.994519 15.544326 -1.321412 -2.781734 0.069604 -9.422722 -6.228450 4.700742 -3.295053 -3.155780 3.972024 6.599210 5.111602 6.031705 0.126908 -0.001618 0.003787 
-78.848381 75.301514 82.203224 -2.784040 0.081601 -110.082056 -1.690218 -5.169453 0.090667 -0.738291 -2.302377 0.031350 -0.738291 -2.302376 0.031351 -0.553526 -1.726824 0.020727 2.598759 -15.350200 -4.116123 3.318921 7.698632 -6.721954 9.222057 6.699238 -2.205395 46.423300 -18.443285 -11.819571 -4.608253 -59.373407 65.141741 -29.436053 42.151594 66.413522 -6.316264 5.283281 -4.601592 -44.194360 -7.274986 12.250247 -43.073922 -55.877675 -18.983963 17.220152 18.270792 -59.450732 2.047698 19.089653 1.516482 -3.939624 -1.804594 -13.932448 4.125194 -8.766786 15.384632 -1.290784 -2.367252 0.058588 -9.480376 -6.321929 4.633549 -3.269119 -3.118214 3.821552 6.597322 5.190454 6.050963 0.078811 -0.022453 0.007667 
-78.713280 75.226189 82.186874 -2.762487 0.139660 -109.925092 -1.709249 -5.174202 0.066252 -0.741422 -2.309312 0.020329 -0.741423 -2.309312 0.020331 -0.555915 -1.732013 0.012439 2.591943 -15.335556 -4.140408 3.296632 7.725310 -6.770014 9.217262 6.723406 -2.199051 46.452574 -18.369754 -11.831521 -4.598137 -59.384561 65.103799 -29.402038 42.095460 66.432879 -6.313509 5.292829 -4.607839 -44.152703 -7.346937 12.216653 -43.167683 -55.871890 -18.928727 17.249795 18.317288 -59.485367 2.220792 18.982189 1.193405 -3.976002 -1.723158 -13.883077 4.169257 -8.563828 15.309761 -1.247276 -1.986488 0.047175 -9.517287 -6.425924 4.604981 -3.215505 -3.077410 3.668535 6.608671 5.255085 6.062993 0.014880 -0.028936 0.005999 
-78.569305 75.141312 82.173096 -2.743067 0.159692 -109.768537 -1.698992 -5.182877 0.049232 -0.735876 -2.316349 0.010808 -0.735876 -2.316348 0.010806 -0.551791 -1.737278 0.005316 2.572106 -15.333208 -4.164130 3.250640 7.728736 -6.821806 9.217874 6.735913 -2.180788 46.463950 -18.310368 -11.859112 -4.636931 -59.358435 65.142595 -29.370995 42.054042 66.450904 -6.302612 5.258651 -4.608950 -44.142157 -7.401569 12.152228 -43.250879 -55.843558 -18.859401 17.267499 18.371467 -59.513815 2.418927 18.829015 0.929249 -4.000660 -1.640697 -13.981856 4.177621 -8.375548 15.317591 -1.196285 -1.647145 0.049234 -9.525883 -6.550755 4.584354 -3.151242 -3.039407 3.533183 6.627294 5.336920 6.075538 -0.047078 -0.038531 0.006925 
-78.416786 75.051544 82.161316 -2.713257 0.165031 -109.612426 -1.671298 -5.179950 0.038989 -0.726351 -2.318258 0.004360 -0.726351 -2.318257 0.004359 -0.544672 -1.738701 0.000512 2.549366 -15.348291 -4.191431 3.198492 7.699646 -6.881214 9.220171 6.725650 -2.176181 46.458732 -18.285601 -11.867948 -4.671598 -59.318902 65.189497 -29.349774 42.043974 66.466067 -6.290571 5.217149 -4.607878 -44.168596 -7.443705 12.105353 -43.287902 -55.814957 -18.812057 17.268339 18.422647 -59.515229 2.640192 18.647967 0.652573 -4.019124 -1.537702 -14.264203 4.087036 -8.193438 15.271149 -1.133181 -1.342573 0.058679 -9.512083 -6.685262 4.539070 -3.091352 -2.991091 3.442083 6.659086 5.428928 6.040909 -0.109892 -0.049577 0.005129 
-78.247025 74.950729 82.148552 -2.677174 0.162795 -109.468091 -1.634932 -5.171970 0.037149 -0.715308 -2.313429 0.000299 -0.715308 -2.313428 0.000303 -0.536407 -1.735075 -0.002483 2.532361 -15.380787 -4.219685 3.157341 7.638379 -6.940085 9.222656 6.734271 -2.173218 46.435625 -18.304497 -11.871659 -4.630952 -59.288002 65.168939 -29.331482 42.053041 66.488620 -6.290177 5.221409 -4.611825 -44.213399 -7.476099 12.112851 -43.305001 -55.782496 -18.775565 17.265528 18.431838 -59.488134 2.864103 18.445535 0.336279 -4.023871 -1.433748 -14.596784 3.968000 -8.027711 15.334673 -1.073849 -1.065529 0.064384 -9.487636 -6.838668 4.457727 -3.043890 -2.926108 3.327405 6.708488 5.529331 6.074900 -0.163862 -0.062634 0.004208 
-78.058525 74.846237 82.133026 -2.634925 0.158220 -109.328085 -1.598470 -5.159766 0.037095 -0.704747 -2.301013 -0.000978 -0.704746 -2.301012 -0.000977 -0.528493 -1.725761 -0.003388 2.530499 -15.431194 -4.248961 3.144785 7.544390 -6.994971 9.225047 6.762181 -2.174668 46.401016 -18.340395 -11.878053 -4.545380 -59.282716 65.109741 -29.314264 42.062067 66.508803 -6.294252 5.252728 -4.614707 -44.260278 -7.476221 12.140426 -43.318692 -55.760370 -18.725394 17.257935 18.407158 -59.443690 3.052380 18.239615 0.009253 -3.999945 -1.362542 -14.851770 3.836735 -7.844233 15.270356 -1.000801 -0.812119 0.067317 -9.454543 -7.006283 4.338467 -3.005718 -2.845605 3.227753 6.764969 5.634105 6.120048 -0.209434 -0.072606 -0.001483 
-77.858360 74.731171 82.115845 -2.572751 0.153203 -109.198189 -1.563964 -5.127306 0.039435 -0.692359 -2.284882 0.000536 -0.692359 -2.284881 0.000536 -0.519199 -1.713664 -0.002188 2.542047 -15.491041 -4.277557 3.157902 7.433361 -7.043472 9.221585 6.801171 -2.160453 46.374075 -18.373462 -11.902683 -4.440792 -59.293473 65.032082 -29.314742 42.073002 66.511057 -6.309409 5.302740 -4.608031 -44.299637 -7.448442 12.181621 -43.340682 -55.770919 -18.648756 17.239935 18.384190 -59.385974 3.212145 18.039950 -0.294291 -3.961843 -1.321026 -14.995957 3.767464 -7.699902 15.271849 -0.945655 -0.559787 0.066538 -9.407036 -7.165661 4.229518 -2.980283 -2.769200 3.150363 6.812197 5.773970 6.192086 -0.237000 -0.090756 0.001241 
-77.653999 74.610313 82.099792 -2.495352 0.134760 -109.075505 -1.526844 -5.076246 0.044032 -0.678353 -2.263196 0.004716 -0.678353 -2.263196 0.004717 -0.508681 -1.697404 0.001021 2.565555 -15.558638 -4.305606 3.193858 7.308386 -7.086434 9.218801 6.822743 -2.142785 46.351091 -18.392294 -11.942224 -4.300953 -59.310781 64.939909 -29.312061 42.067320 66.510278 -6.328461 5.341439 -4.598842 -44.334751 -7.422790 12.234213 -43.349865 -55.780140 -18.573134 17.210902 18.359854 -59.338512 3.356489 17.842751 -0.554321 -3.913139 -1.301125 -15.065883 3.674961 -7.555508 15.074916 -0.859920 -0.320920 0.064476 -9.329646 -7.314032 4.183018 -2.955031 -2.707161 3.050605 6.851090 5.922627 6.180101 -0.261974 -0.101693 0.003419 
